<mxfile host="app.diagrams.net" modified="2024-05-03T20:33:36.860Z" agent="Mozilla/5.0 (Macintosh; Intel Mac OS X 10_15_7) AppleWebKit/537.36 (KHTML, like Gecko) Chrome/123.0.0.0 Safari/537.36" etag="XLJWyxl6qizI5FZHmdEc" version="24.3.1" type="device">
  <diagram id="C5RBs43oDa-KdzZeNtuy" name="Page-1">
    <mxGraphModel dx="1767" dy="1015" grid="1" gridSize="10" guides="1" tooltips="1" connect="1" arrows="1" fold="1" page="1" pageScale="1" pageWidth="827" pageHeight="1169" math="0" shadow="0">
      <root>
        <mxCell id="WIyWlLk6GJQsqaUBKTNV-0" />
        <mxCell id="WIyWlLk6GJQsqaUBKTNV-1" parent="WIyWlLk6GJQsqaUBKTNV-0" />
        <mxCell id="p7LAtFyXHKQ8iP5lbTSZ-89" value="" style="shape=process;whiteSpace=wrap;html=1;backgroundOutline=1;" vertex="1" parent="WIyWlLk6GJQsqaUBKTNV-1">
          <mxGeometry x="170" y="900" width="650" height="190" as="geometry" />
        </mxCell>
        <mxCell id="WIyWlLk6GJQsqaUBKTNV-2" value="" style="rounded=0;html=1;jettySize=auto;orthogonalLoop=1;fontSize=11;endArrow=block;endFill=0;endSize=8;strokeWidth=1;shadow=0;labelBackgroundColor=none;edgeStyle=orthogonalEdgeStyle;exitX=0.5;exitY=1;exitDx=0;exitDy=0;exitPerimeter=0;entryX=0.5;entryY=0;entryDx=0;entryDy=0;" parent="WIyWlLk6GJQsqaUBKTNV-1" source="p7LAtFyXHKQ8iP5lbTSZ-0" target="p7LAtFyXHKQ8iP5lbTSZ-1" edge="1">
          <mxGeometry relative="1" as="geometry">
            <mxPoint x="46" y="100" as="sourcePoint" />
            <mxPoint x="240" y="160" as="targetPoint" />
          </mxGeometry>
        </mxCell>
        <mxCell id="p7LAtFyXHKQ8iP5lbTSZ-0" value="Data from&lt;div&gt;PhysioNet&lt;/div&gt;" style="shape=cylinder3;whiteSpace=wrap;html=1;boundedLbl=1;backgroundOutline=1;size=15;" vertex="1" parent="WIyWlLk6GJQsqaUBKTNV-1">
          <mxGeometry x="205" y="10" width="70" height="90" as="geometry" />
        </mxCell>
        <mxCell id="p7LAtFyXHKQ8iP5lbTSZ-1" value="Convert WFDB to txt" style="shape=process;whiteSpace=wrap;html=1;backgroundOutline=1;" vertex="1" parent="WIyWlLk6GJQsqaUBKTNV-1">
          <mxGeometry x="180" y="140" width="120" height="60" as="geometry" />
        </mxCell>
        <mxCell id="p7LAtFyXHKQ8iP5lbTSZ-4" value="txt with ecg channel" style="shape=cylinder3;whiteSpace=wrap;html=1;boundedLbl=1;backgroundOutline=1;size=15;" vertex="1" parent="WIyWlLk6GJQsqaUBKTNV-1">
          <mxGeometry x="356" y="130" width="60" height="80" as="geometry" />
        </mxCell>
        <mxCell id="p7LAtFyXHKQ8iP5lbTSZ-5" value="" style="endArrow=classic;html=1;rounded=0;exitX=1;exitY=0.5;exitDx=0;exitDy=0;entryX=0;entryY=0.5;entryDx=0;entryDy=0;entryPerimeter=0;" edge="1" parent="WIyWlLk6GJQsqaUBKTNV-1" source="p7LAtFyXHKQ8iP5lbTSZ-1" target="p7LAtFyXHKQ8iP5lbTSZ-4">
          <mxGeometry width="50" height="50" relative="1" as="geometry">
            <mxPoint x="216" y="360" as="sourcePoint" />
            <mxPoint x="266" y="310" as="targetPoint" />
          </mxGeometry>
        </mxCell>
        <mxCell id="p7LAtFyXHKQ8iP5lbTSZ-6" value="data quá lớn&lt;div&gt;sample mẫu lẻ&lt;/div&gt;&lt;div&gt;mỗi mẫu 6000ms&lt;/div&gt;&lt;div&gt;mỗi signal 100 mẫu&lt;/div&gt;" style="ellipse;shape=cloud;whiteSpace=wrap;html=1;" vertex="1" parent="WIyWlLk6GJQsqaUBKTNV-1">
          <mxGeometry x="430" y="150" width="160" height="140" as="geometry" />
        </mxCell>
        <mxCell id="p7LAtFyXHKQ8iP5lbTSZ-7" value="18159 đoạn" style="shape=cylinder3;whiteSpace=wrap;html=1;boundedLbl=1;backgroundOutline=1;size=15;" vertex="1" parent="WIyWlLk6GJQsqaUBKTNV-1">
          <mxGeometry x="356" y="310" width="60" height="80" as="geometry" />
        </mxCell>
        <mxCell id="p7LAtFyXHKQ8iP5lbTSZ-8" value="convert&lt;div&gt;sang&lt;/div&gt;&lt;div&gt;mV&lt;/div&gt;" style="endArrow=classic;html=1;rounded=0;exitX=0.5;exitY=1;exitDx=0;exitDy=0;exitPerimeter=0;entryX=0.5;entryY=0;entryDx=0;entryDy=0;entryPerimeter=0;" edge="1" parent="WIyWlLk6GJQsqaUBKTNV-1" source="p7LAtFyXHKQ8iP5lbTSZ-4" target="p7LAtFyXHKQ8iP5lbTSZ-7">
          <mxGeometry width="50" height="50" relative="1" as="geometry">
            <mxPoint x="216" y="370" as="sourcePoint" />
            <mxPoint x="266" y="320" as="targetPoint" />
          </mxGeometry>
        </mxCell>
        <mxCell id="p7LAtFyXHKQ8iP5lbTSZ-9" value="điện tim ở uV" style="shape=callout;whiteSpace=wrap;html=1;perimeter=calloutPerimeter;" vertex="1" parent="WIyWlLk6GJQsqaUBKTNV-1">
          <mxGeometry x="340" y="50" width="120" height="80" as="geometry" />
        </mxCell>
        <mxCell id="p7LAtFyXHKQ8iP5lbTSZ-10" value="" style="endArrow=none;dashed=1;html=1;dashPattern=1 3;strokeWidth=2;rounded=0;exitX=0.25;exitY=0.25;exitDx=0;exitDy=0;exitPerimeter=0;entryX=1;entryY=0.5;entryDx=0;entryDy=0;entryPerimeter=0;" edge="1" parent="WIyWlLk6GJQsqaUBKTNV-1" source="p7LAtFyXHKQ8iP5lbTSZ-6" target="p7LAtFyXHKQ8iP5lbTSZ-4">
          <mxGeometry width="50" height="50" relative="1" as="geometry">
            <mxPoint x="216" y="370" as="sourcePoint" />
            <mxPoint x="266" y="320" as="targetPoint" />
          </mxGeometry>
        </mxCell>
        <mxCell id="p7LAtFyXHKQ8iP5lbTSZ-11" value="" style="endArrow=none;dashed=1;html=1;dashPattern=1 3;strokeWidth=2;rounded=0;exitX=0.5;exitY=0;exitDx=0;exitDy=0;exitPerimeter=0;entryX=0.13;entryY=0.77;entryDx=0;entryDy=0;entryPerimeter=0;" edge="1" parent="WIyWlLk6GJQsqaUBKTNV-1" source="p7LAtFyXHKQ8iP5lbTSZ-7" target="p7LAtFyXHKQ8iP5lbTSZ-6">
          <mxGeometry width="50" height="50" relative="1" as="geometry">
            <mxPoint x="216" y="370" as="sourcePoint" />
            <mxPoint x="266" y="320" as="targetPoint" />
          </mxGeometry>
        </mxCell>
        <mxCell id="p7LAtFyXHKQ8iP5lbTSZ-12" value="chuẩn hoá data&lt;div&gt;bằng minmaxscaler&lt;/div&gt;" style="shape=process;whiteSpace=wrap;html=1;backgroundOutline=1;" vertex="1" parent="WIyWlLk6GJQsqaUBKTNV-1">
          <mxGeometry x="430" y="400" width="120" height="60" as="geometry" />
        </mxCell>
        <mxCell id="p7LAtFyXHKQ8iP5lbTSZ-13" value="data tín hiệu&amp;nbsp;&lt;div&gt;lộn xộn&lt;/div&gt;&lt;div&gt;sai số lớn&lt;/div&gt;" style="ellipse;shape=cloud;whiteSpace=wrap;html=1;" vertex="1" parent="WIyWlLk6GJQsqaUBKTNV-1">
          <mxGeometry x="500" y="300" width="120" height="90" as="geometry" />
        </mxCell>
        <mxCell id="p7LAtFyXHKQ8iP5lbTSZ-14" value="" style="endArrow=none;dashed=1;html=1;dashPattern=1 3;strokeWidth=2;rounded=0;exitX=1;exitY=0.5;exitDx=0;exitDy=0;exitPerimeter=0;entryX=0.07;entryY=0.4;entryDx=0;entryDy=0;entryPerimeter=0;" edge="1" parent="WIyWlLk6GJQsqaUBKTNV-1" source="p7LAtFyXHKQ8iP5lbTSZ-7" target="p7LAtFyXHKQ8iP5lbTSZ-13">
          <mxGeometry width="50" height="50" relative="1" as="geometry">
            <mxPoint x="550" y="320" as="sourcePoint" />
            <mxPoint x="600" y="270" as="targetPoint" />
          </mxGeometry>
        </mxCell>
        <mxCell id="p7LAtFyXHKQ8iP5lbTSZ-15" value="" style="curved=1;endArrow=classic;html=1;rounded=0;entryX=1;entryY=0.5;entryDx=0;entryDy=0;exitX=0.875;exitY=0.5;exitDx=0;exitDy=0;exitPerimeter=0;" edge="1" parent="WIyWlLk6GJQsqaUBKTNV-1" source="p7LAtFyXHKQ8iP5lbTSZ-13" target="p7LAtFyXHKQ8iP5lbTSZ-12">
          <mxGeometry width="50" height="50" relative="1" as="geometry">
            <mxPoint x="786" y="435.5" as="sourcePoint" />
            <mxPoint x="766" y="495" as="targetPoint" />
            <Array as="points">
              <mxPoint x="680" y="380" />
              <mxPoint x="650" y="440" />
            </Array>
          </mxGeometry>
        </mxCell>
        <mxCell id="p7LAtFyXHKQ8iP5lbTSZ-16" value="" style="endArrow=classic;html=1;rounded=0;exitX=0.5;exitY=0;exitDx=0;exitDy=0;entryX=1;entryY=1;entryDx=0;entryDy=-15;entryPerimeter=0;" edge="1" parent="WIyWlLk6GJQsqaUBKTNV-1" source="p7LAtFyXHKQ8iP5lbTSZ-12" target="p7LAtFyXHKQ8iP5lbTSZ-7">
          <mxGeometry width="50" height="50" relative="1" as="geometry">
            <mxPoint x="550" y="320" as="sourcePoint" />
            <mxPoint x="600" y="270" as="targetPoint" />
          </mxGeometry>
        </mxCell>
        <mxCell id="p7LAtFyXHKQ8iP5lbTSZ-17" value="featuring&amp;nbsp;&lt;div&gt;segments&lt;/div&gt;" style="shape=cylinder3;whiteSpace=wrap;html=1;boundedLbl=1;backgroundOutline=1;size=15;" vertex="1" parent="WIyWlLk6GJQsqaUBKTNV-1">
          <mxGeometry x="220" y="465" width="60" height="80" as="geometry" />
        </mxCell>
        <mxCell id="p7LAtFyXHKQ8iP5lbTSZ-18" value="filter và lấy thông số tương ứng" style="shape=process;whiteSpace=wrap;html=1;backgroundOutline=1;" vertex="1" parent="WIyWlLk6GJQsqaUBKTNV-1">
          <mxGeometry x="190" y="360" width="120" height="60" as="geometry" />
        </mxCell>
        <mxCell id="p7LAtFyXHKQ8iP5lbTSZ-19" value="" style="endArrow=classic;html=1;rounded=0;exitX=0;exitY=1;exitDx=0;exitDy=-15;exitPerimeter=0;entryX=1;entryY=0.25;entryDx=0;entryDy=0;" edge="1" parent="WIyWlLk6GJQsqaUBKTNV-1" source="p7LAtFyXHKQ8iP5lbTSZ-7" target="p7LAtFyXHKQ8iP5lbTSZ-18">
          <mxGeometry width="50" height="50" relative="1" as="geometry">
            <mxPoint x="550" y="450" as="sourcePoint" />
            <mxPoint x="600" y="400" as="targetPoint" />
          </mxGeometry>
        </mxCell>
        <mxCell id="p7LAtFyXHKQ8iP5lbTSZ-20" value="" style="endArrow=classic;html=1;rounded=0;exitX=0.5;exitY=1;exitDx=0;exitDy=0;entryX=0.5;entryY=0;entryDx=0;entryDy=0;entryPerimeter=0;" edge="1" parent="WIyWlLk6GJQsqaUBKTNV-1" source="p7LAtFyXHKQ8iP5lbTSZ-18" target="p7LAtFyXHKQ8iP5lbTSZ-17">
          <mxGeometry width="50" height="50" relative="1" as="geometry">
            <mxPoint x="550" y="450" as="sourcePoint" />
            <mxPoint x="600" y="400" as="targetPoint" />
          </mxGeometry>
        </mxCell>
        <mxCell id="p7LAtFyXHKQ8iP5lbTSZ-24" value="" style="endArrow=none;dashed=1;html=1;dashPattern=1 3;strokeWidth=2;rounded=0;" edge="1" parent="WIyWlLk6GJQsqaUBKTNV-1">
          <mxGeometry width="50" height="50" relative="1" as="geometry">
            <mxPoint x="320" y="610" as="sourcePoint" />
            <mxPoint x="610" y="610" as="targetPoint" />
          </mxGeometry>
        </mxCell>
        <mxCell id="p7LAtFyXHKQ8iP5lbTSZ-25" value="" style="endArrow=none;dashed=1;html=1;dashPattern=1 3;strokeWidth=2;rounded=0;" edge="1" parent="WIyWlLk6GJQsqaUBKTNV-1">
          <mxGeometry width="50" height="50" relative="1" as="geometry">
            <mxPoint x="610" y="610" as="sourcePoint" />
            <mxPoint x="610" y="840" as="targetPoint" />
          </mxGeometry>
        </mxCell>
        <mxCell id="p7LAtFyXHKQ8iP5lbTSZ-27" value="" style="endArrow=none;dashed=1;html=1;dashPattern=1 3;strokeWidth=2;rounded=0;" edge="1" parent="WIyWlLk6GJQsqaUBKTNV-1">
          <mxGeometry width="50" height="50" relative="1" as="geometry">
            <mxPoint x="320" y="610" as="sourcePoint" />
            <mxPoint x="320" y="840" as="targetPoint" />
          </mxGeometry>
        </mxCell>
        <mxCell id="p7LAtFyXHKQ8iP5lbTSZ-28" value="" style="endArrow=none;dashed=1;html=1;dashPattern=1 3;strokeWidth=2;rounded=0;" edge="1" parent="WIyWlLk6GJQsqaUBKTNV-1">
          <mxGeometry width="50" height="50" relative="1" as="geometry">
            <mxPoint x="320" y="840" as="sourcePoint" />
            <mxPoint x="610" y="840" as="targetPoint" />
          </mxGeometry>
        </mxCell>
        <mxCell id="p7LAtFyXHKQ8iP5lbTSZ-29" value="gắn nhãn thủ công" style="shape=offPageConnector;whiteSpace=wrap;html=1;size=0.16666666666666666;" vertex="1" parent="WIyWlLk6GJQsqaUBKTNV-1">
          <mxGeometry x="346" y="625" width="100" height="60" as="geometry" />
        </mxCell>
        <mxCell id="p7LAtFyXHKQ8iP5lbTSZ-30" value="798 đoạn" style="shape=cylinder3;whiteSpace=wrap;html=1;boundedLbl=1;backgroundOutline=1;size=15;" vertex="1" parent="WIyWlLk6GJQsqaUBKTNV-1">
          <mxGeometry x="220" y="660" width="60" height="80" as="geometry" />
        </mxCell>
        <mxCell id="p7LAtFyXHKQ8iP5lbTSZ-31" value="lấy lượng nhỏ sample&lt;div&gt;để train model QC&lt;/div&gt;&lt;div&gt;gắn nhãn&lt;/div&gt;&lt;div&gt;mỗi signal 4 mẫu&lt;/div&gt;" style="ellipse;shape=cloud;whiteSpace=wrap;html=1;" vertex="1" parent="WIyWlLk6GJQsqaUBKTNV-1">
          <mxGeometry x="30" y="520" width="160" height="140" as="geometry" />
        </mxCell>
        <mxCell id="p7LAtFyXHKQ8iP5lbTSZ-32" value="" style="endArrow=none;dashed=1;html=1;dashPattern=1 3;strokeWidth=2;rounded=0;exitX=0.875;exitY=0.5;exitDx=0;exitDy=0;exitPerimeter=0;entryX=0.5;entryY=0;entryDx=0;entryDy=0;entryPerimeter=0;" edge="1" parent="WIyWlLk6GJQsqaUBKTNV-1" source="p7LAtFyXHKQ8iP5lbTSZ-31" target="p7LAtFyXHKQ8iP5lbTSZ-30">
          <mxGeometry width="50" height="50" relative="1" as="geometry">
            <mxPoint x="550" y="450" as="sourcePoint" />
            <mxPoint x="250" y="610" as="targetPoint" />
          </mxGeometry>
        </mxCell>
        <mxCell id="p7LAtFyXHKQ8iP5lbTSZ-34" value="" style="endArrow=classic;html=1;rounded=0;exitX=0.5;exitY=1;exitDx=0;exitDy=0;exitPerimeter=0;entryX=0.5;entryY=0;entryDx=0;entryDy=0;entryPerimeter=0;" edge="1" parent="WIyWlLk6GJQsqaUBKTNV-1" source="p7LAtFyXHKQ8iP5lbTSZ-17" target="p7LAtFyXHKQ8iP5lbTSZ-30">
          <mxGeometry width="50" height="50" relative="1" as="geometry">
            <mxPoint x="550" y="450" as="sourcePoint" />
            <mxPoint x="600" y="400" as="targetPoint" />
          </mxGeometry>
        </mxCell>
        <mxCell id="p7LAtFyXHKQ8iP5lbTSZ-35" value="" style="endArrow=none;dashed=1;html=1;dashPattern=1 3;strokeWidth=2;rounded=0;exitX=0.88;exitY=0.25;exitDx=0;exitDy=0;exitPerimeter=0;entryX=0;entryY=0.5;entryDx=0;entryDy=0;entryPerimeter=0;" edge="1" parent="WIyWlLk6GJQsqaUBKTNV-1" source="p7LAtFyXHKQ8iP5lbTSZ-31" target="p7LAtFyXHKQ8iP5lbTSZ-17">
          <mxGeometry width="50" height="50" relative="1" as="geometry">
            <mxPoint x="550" y="450" as="sourcePoint" />
            <mxPoint x="600" y="400" as="targetPoint" />
          </mxGeometry>
        </mxCell>
        <mxCell id="p7LAtFyXHKQ8iP5lbTSZ-36" value="" style="endArrow=classic;html=1;rounded=0;exitX=1;exitY=0;exitDx=0;exitDy=15;exitPerimeter=0;entryX=0;entryY=0.25;entryDx=0;entryDy=0;" edge="1" parent="WIyWlLk6GJQsqaUBKTNV-1" source="p7LAtFyXHKQ8iP5lbTSZ-30" target="p7LAtFyXHKQ8iP5lbTSZ-29">
          <mxGeometry width="50" height="50" relative="1" as="geometry">
            <mxPoint x="550" y="450" as="sourcePoint" />
            <mxPoint x="600" y="400" as="targetPoint" />
          </mxGeometry>
        </mxCell>
        <mxCell id="p7LAtFyXHKQ8iP5lbTSZ-37" value="build model QC" style="shape=process;whiteSpace=wrap;html=1;backgroundOutline=1;" vertex="1" parent="WIyWlLk6GJQsqaUBKTNV-1">
          <mxGeometry x="470" y="760" width="120" height="60" as="geometry" />
        </mxCell>
        <mxCell id="p7LAtFyXHKQ8iP5lbTSZ-38" value="label" style="shape=cylinder3;whiteSpace=wrap;html=1;boundedLbl=1;backgroundOutline=1;size=15;" vertex="1" parent="WIyWlLk6GJQsqaUBKTNV-1">
          <mxGeometry x="520" y="615" width="60" height="80" as="geometry" />
        </mxCell>
        <mxCell id="p7LAtFyXHKQ8iP5lbTSZ-39" value="" style="endArrow=classic;html=1;rounded=0;exitX=1;exitY=0.5;exitDx=0;exitDy=0;entryX=0;entryY=0.5;entryDx=0;entryDy=0;entryPerimeter=0;" edge="1" parent="WIyWlLk6GJQsqaUBKTNV-1" source="p7LAtFyXHKQ8iP5lbTSZ-29" target="p7LAtFyXHKQ8iP5lbTSZ-38">
          <mxGeometry width="50" height="50" relative="1" as="geometry">
            <mxPoint x="480" y="530" as="sourcePoint" />
            <mxPoint x="530" y="480" as="targetPoint" />
          </mxGeometry>
        </mxCell>
        <mxCell id="p7LAtFyXHKQ8iP5lbTSZ-40" value="" style="endArrow=classic;html=1;rounded=0;exitX=1;exitY=0;exitDx=0;exitDy=15;exitPerimeter=0;entryX=0;entryY=0.5;entryDx=0;entryDy=0;" edge="1" parent="WIyWlLk6GJQsqaUBKTNV-1" source="p7LAtFyXHKQ8iP5lbTSZ-30" target="p7LAtFyXHKQ8iP5lbTSZ-37">
          <mxGeometry width="50" height="50" relative="1" as="geometry">
            <mxPoint x="550" y="450" as="sourcePoint" />
            <mxPoint x="600" y="400" as="targetPoint" />
          </mxGeometry>
        </mxCell>
        <mxCell id="p7LAtFyXHKQ8iP5lbTSZ-41" value="" style="endArrow=classic;html=1;rounded=0;exitX=0.5;exitY=1;exitDx=0;exitDy=0;exitPerimeter=0;entryX=0.5;entryY=0;entryDx=0;entryDy=0;" edge="1" parent="WIyWlLk6GJQsqaUBKTNV-1" source="p7LAtFyXHKQ8iP5lbTSZ-38" target="p7LAtFyXHKQ8iP5lbTSZ-37">
          <mxGeometry width="50" height="50" relative="1" as="geometry">
            <mxPoint x="480" y="530" as="sourcePoint" />
            <mxPoint x="530" y="480" as="targetPoint" />
          </mxGeometry>
        </mxCell>
        <mxCell id="p7LAtFyXHKQ8iP5lbTSZ-42" value="&lt;h1 style=&quot;margin-top: 0px;&quot;&gt;Planning&lt;/h1&gt;&lt;p&gt;Model QC đánh giá chất lượng các mẫu toàn cục sau đó thực hiện đưa ra label tương ứng cho các mẫu tương ứng. Dùng để train model stroke tổng thể sau này&lt;/p&gt;" style="text;html=1;whiteSpace=wrap;overflow=hidden;rounded=0;" vertex="1" parent="WIyWlLk6GJQsqaUBKTNV-1">
          <mxGeometry x="640" y="750" width="180" height="120" as="geometry" />
        </mxCell>
        <mxCell id="p7LAtFyXHKQ8iP5lbTSZ-44" value="" style="endArrow=none;dashed=1;html=1;rounded=0;exitX=1;exitY=0.5;exitDx=0;exitDy=0;entryX=0;entryY=0.25;entryDx=0;entryDy=0;" edge="1" parent="WIyWlLk6GJQsqaUBKTNV-1" source="p7LAtFyXHKQ8iP5lbTSZ-37" target="p7LAtFyXHKQ8iP5lbTSZ-42">
          <mxGeometry width="50" height="50" relative="1" as="geometry">
            <mxPoint x="480" y="650" as="sourcePoint" />
            <mxPoint x="530" y="600" as="targetPoint" />
          </mxGeometry>
        </mxCell>
        <mxCell id="p7LAtFyXHKQ8iP5lbTSZ-45" value="ECG&amp;nbsp;&lt;div&gt;segments&lt;/div&gt;" style="shape=cylinder3;whiteSpace=wrap;html=1;boundedLbl=1;backgroundOutline=1;size=15;" vertex="1" parent="WIyWlLk6GJQsqaUBKTNV-1">
          <mxGeometry x="240" y="970" width="60" height="80" as="geometry" />
        </mxCell>
        <mxCell id="p7LAtFyXHKQ8iP5lbTSZ-51" value="n_filters = 28" style="shape=flexArrow;endArrow=classic;startArrow=classic;html=1;rounded=0;" edge="1" parent="WIyWlLk6GJQsqaUBKTNV-1">
          <mxGeometry width="100" height="100" relative="1" as="geometry">
            <mxPoint x="529.5" y="990" as="sourcePoint" />
            <mxPoint x="459.5" y="920" as="targetPoint" />
          </mxGeometry>
        </mxCell>
        <mxCell id="p7LAtFyXHKQ8iP5lbTSZ-52" value="tích chập" style="text;html=1;align=center;verticalAlign=middle;whiteSpace=wrap;rounded=0;" vertex="1" parent="WIyWlLk6GJQsqaUBKTNV-1">
          <mxGeometry x="388.5" y="1040" width="60" height="30" as="geometry" />
        </mxCell>
        <mxCell id="p7LAtFyXHKQ8iP5lbTSZ-53" value="" style="rounded=0;whiteSpace=wrap;html=1;fillColor=#d5e8d4;strokeColor=#82b366;" vertex="1" parent="WIyWlLk6GJQsqaUBKTNV-1">
          <mxGeometry x="581.5" y="939" width="40" height="60" as="geometry" />
        </mxCell>
        <mxCell id="p7LAtFyXHKQ8iP5lbTSZ-54" value="" style="rounded=0;whiteSpace=wrap;html=1;fillColor=#f8cecc;strokeColor=#b85450;" vertex="1" parent="WIyWlLk6GJQsqaUBKTNV-1">
          <mxGeometry x="581.5" y="1020" width="40" height="60" as="geometry" />
        </mxCell>
        <mxCell id="p7LAtFyXHKQ8iP5lbTSZ-55" value="output" style="shape=process;whiteSpace=wrap;html=1;backgroundOutline=1;" vertex="1" parent="WIyWlLk6GJQsqaUBKTNV-1">
          <mxGeometry x="650" y="979" width="120" height="60" as="geometry" />
        </mxCell>
        <mxCell id="p7LAtFyXHKQ8iP5lbTSZ-57" value="" style="shape=flexArrow;endArrow=classic;html=1;rounded=0;entryX=0;entryY=0.5;entryDx=0;entryDy=0;exitX=1;exitY=0.5;exitDx=0;exitDy=0;exitPerimeter=0;" edge="1" parent="WIyWlLk6GJQsqaUBKTNV-1" source="p7LAtFyXHKQ8iP5lbTSZ-45" target="p7LAtFyXHKQ8iP5lbTSZ-55">
          <mxGeometry width="50" height="50" relative="1" as="geometry">
            <mxPoint x="271.5" y="1010" as="sourcePoint" />
            <mxPoint x="531.5" y="980" as="targetPoint" />
          </mxGeometry>
        </mxCell>
        <mxCell id="p7LAtFyXHKQ8iP5lbTSZ-47" value="" style="rounded=0;whiteSpace=wrap;html=1;" vertex="1" parent="WIyWlLk6GJQsqaUBKTNV-1">
          <mxGeometry x="341.5" y="960" width="120" height="60" as="geometry" />
        </mxCell>
        <mxCell id="p7LAtFyXHKQ8iP5lbTSZ-49" value="" style="rounded=0;whiteSpace=wrap;html=1;" vertex="1" parent="WIyWlLk6GJQsqaUBKTNV-1">
          <mxGeometry x="351.5" y="970" width="120" height="60" as="geometry" />
        </mxCell>
        <mxCell id="p7LAtFyXHKQ8iP5lbTSZ-50" value="feature map" style="rounded=0;whiteSpace=wrap;html=1;" vertex="1" parent="WIyWlLk6GJQsqaUBKTNV-1">
          <mxGeometry x="361.5" y="980" width="120" height="60" as="geometry" />
        </mxCell>
        <mxCell id="p7LAtFyXHKQ8iP5lbTSZ-58" value="gộp" style="text;html=1;align=center;verticalAlign=middle;whiteSpace=wrap;rounded=0;" vertex="1" parent="WIyWlLk6GJQsqaUBKTNV-1">
          <mxGeometry x="571.5" y="900" width="60" height="30" as="geometry" />
        </mxCell>
        <mxCell id="p7LAtFyXHKQ8iP5lbTSZ-59" value="ker_sz = 20" style="text;html=1;align=center;verticalAlign=middle;whiteSpace=wrap;rounded=0;" vertex="1" parent="WIyWlLk6GJQsqaUBKTNV-1">
          <mxGeometry x="334.5" y="939" width="83" height="30" as="geometry" />
        </mxCell>
        <mxCell id="p7LAtFyXHKQ8iP5lbTSZ-60" value="" style="ellipse;whiteSpace=wrap;html=1;aspect=fixed;" vertex="1" parent="WIyWlLk6GJQsqaUBKTNV-1">
          <mxGeometry x="60" y="1004" width="10" height="10" as="geometry" />
        </mxCell>
        <mxCell id="p7LAtFyXHKQ8iP5lbTSZ-62" value="" style="ellipse;whiteSpace=wrap;html=1;aspect=fixed;" vertex="1" parent="WIyWlLk6GJQsqaUBKTNV-1">
          <mxGeometry x="112" y="984" width="10" height="10" as="geometry" />
        </mxCell>
        <mxCell id="p7LAtFyXHKQ8iP5lbTSZ-63" value="" style="ellipse;whiteSpace=wrap;html=1;aspect=fixed;" vertex="1" parent="WIyWlLk6GJQsqaUBKTNV-1">
          <mxGeometry x="112" y="1004" width="10" height="10" as="geometry" />
        </mxCell>
        <mxCell id="p7LAtFyXHKQ8iP5lbTSZ-64" value="" style="ellipse;whiteSpace=wrap;html=1;aspect=fixed;" vertex="1" parent="WIyWlLk6GJQsqaUBKTNV-1">
          <mxGeometry x="112" y="1024" width="10" height="10" as="geometry" />
        </mxCell>
        <mxCell id="p7LAtFyXHKQ8iP5lbTSZ-68" value="" style="ellipse;whiteSpace=wrap;html=1;aspect=fixed;" vertex="1" parent="WIyWlLk6GJQsqaUBKTNV-1">
          <mxGeometry x="112" y="1044" width="10" height="10" as="geometry" />
        </mxCell>
        <mxCell id="p7LAtFyXHKQ8iP5lbTSZ-69" value="" style="ellipse;whiteSpace=wrap;html=1;aspect=fixed;" vertex="1" parent="WIyWlLk6GJQsqaUBKTNV-1">
          <mxGeometry x="112" y="1064" width="10" height="10" as="geometry" />
        </mxCell>
        <mxCell id="p7LAtFyXHKQ8iP5lbTSZ-70" value="" style="ellipse;whiteSpace=wrap;html=1;aspect=fixed;" vertex="1" parent="WIyWlLk6GJQsqaUBKTNV-1">
          <mxGeometry x="112" y="1084" width="10" height="10" as="geometry" />
        </mxCell>
        <mxCell id="p7LAtFyXHKQ8iP5lbTSZ-71" value="" style="ellipse;whiteSpace=wrap;html=1;aspect=fixed;" vertex="1" parent="WIyWlLk6GJQsqaUBKTNV-1">
          <mxGeometry x="112" y="904" width="10" height="10" as="geometry" />
        </mxCell>
        <mxCell id="p7LAtFyXHKQ8iP5lbTSZ-72" value="" style="ellipse;whiteSpace=wrap;html=1;aspect=fixed;" vertex="1" parent="WIyWlLk6GJQsqaUBKTNV-1">
          <mxGeometry x="112" y="944" width="10" height="10" as="geometry" />
        </mxCell>
        <mxCell id="p7LAtFyXHKQ8iP5lbTSZ-73" value="" style="ellipse;whiteSpace=wrap;html=1;aspect=fixed;" vertex="1" parent="WIyWlLk6GJQsqaUBKTNV-1">
          <mxGeometry x="112" y="964" width="10" height="10" as="geometry" />
        </mxCell>
        <mxCell id="p7LAtFyXHKQ8iP5lbTSZ-74" value="" style="ellipse;whiteSpace=wrap;html=1;aspect=fixed;" vertex="1" parent="WIyWlLk6GJQsqaUBKTNV-1">
          <mxGeometry x="112" y="924" width="10" height="10" as="geometry" />
        </mxCell>
        <mxCell id="p7LAtFyXHKQ8iP5lbTSZ-75" value="" style="endArrow=classic;html=1;rounded=0;exitX=1;exitY=0.5;exitDx=0;exitDy=0;entryX=0;entryY=0.5;entryDx=0;entryDy=0;" edge="1" parent="WIyWlLk6GJQsqaUBKTNV-1" source="p7LAtFyXHKQ8iP5lbTSZ-60" target="p7LAtFyXHKQ8iP5lbTSZ-71">
          <mxGeometry width="50" height="50" relative="1" as="geometry">
            <mxPoint x="380" y="964" as="sourcePoint" />
            <mxPoint x="430" y="914" as="targetPoint" />
          </mxGeometry>
        </mxCell>
        <mxCell id="p7LAtFyXHKQ8iP5lbTSZ-77" value="" style="endArrow=classic;html=1;rounded=0;entryX=0;entryY=0.5;entryDx=0;entryDy=0;exitX=1;exitY=0.5;exitDx=0;exitDy=0;" edge="1" parent="WIyWlLk6GJQsqaUBKTNV-1" source="p7LAtFyXHKQ8iP5lbTSZ-60" target="p7LAtFyXHKQ8iP5lbTSZ-74">
          <mxGeometry width="50" height="50" relative="1" as="geometry">
            <mxPoint x="20" y="1034" as="sourcePoint" />
            <mxPoint x="70" y="984" as="targetPoint" />
          </mxGeometry>
        </mxCell>
        <mxCell id="p7LAtFyXHKQ8iP5lbTSZ-78" value="" style="endArrow=classic;html=1;rounded=0;entryX=0;entryY=0.5;entryDx=0;entryDy=0;exitX=1;exitY=0.5;exitDx=0;exitDy=0;" edge="1" parent="WIyWlLk6GJQsqaUBKTNV-1" source="p7LAtFyXHKQ8iP5lbTSZ-60" target="p7LAtFyXHKQ8iP5lbTSZ-72">
          <mxGeometry width="50" height="50" relative="1" as="geometry">
            <mxPoint x="20" y="1034" as="sourcePoint" />
            <mxPoint x="70" y="984" as="targetPoint" />
          </mxGeometry>
        </mxCell>
        <mxCell id="p7LAtFyXHKQ8iP5lbTSZ-80" value="" style="endArrow=classic;html=1;rounded=0;entryX=0;entryY=0.5;entryDx=0;entryDy=0;exitX=1;exitY=0.5;exitDx=0;exitDy=0;" edge="1" parent="WIyWlLk6GJQsqaUBKTNV-1" source="p7LAtFyXHKQ8iP5lbTSZ-60" target="p7LAtFyXHKQ8iP5lbTSZ-73">
          <mxGeometry width="50" height="50" relative="1" as="geometry">
            <mxPoint x="20" y="1034" as="sourcePoint" />
            <mxPoint x="70" y="984" as="targetPoint" />
          </mxGeometry>
        </mxCell>
        <mxCell id="p7LAtFyXHKQ8iP5lbTSZ-81" value="" style="endArrow=classic;html=1;rounded=0;entryX=0;entryY=0.5;entryDx=0;entryDy=0;exitX=1;exitY=0.5;exitDx=0;exitDy=0;" edge="1" parent="WIyWlLk6GJQsqaUBKTNV-1" source="p7LAtFyXHKQ8iP5lbTSZ-60" target="p7LAtFyXHKQ8iP5lbTSZ-62">
          <mxGeometry width="50" height="50" relative="1" as="geometry">
            <mxPoint x="20" y="1034" as="sourcePoint" />
            <mxPoint x="70" y="984" as="targetPoint" />
          </mxGeometry>
        </mxCell>
        <mxCell id="p7LAtFyXHKQ8iP5lbTSZ-82" value="" style="endArrow=classic;html=1;rounded=0;entryX=0;entryY=0.5;entryDx=0;entryDy=0;exitX=1;exitY=0.5;exitDx=0;exitDy=0;" edge="1" parent="WIyWlLk6GJQsqaUBKTNV-1" source="p7LAtFyXHKQ8iP5lbTSZ-60" target="p7LAtFyXHKQ8iP5lbTSZ-63">
          <mxGeometry width="50" height="50" relative="1" as="geometry">
            <mxPoint x="20" y="1034" as="sourcePoint" />
            <mxPoint x="70" y="984" as="targetPoint" />
          </mxGeometry>
        </mxCell>
        <mxCell id="p7LAtFyXHKQ8iP5lbTSZ-83" value="" style="endArrow=classic;html=1;rounded=0;entryX=0;entryY=0.5;entryDx=0;entryDy=0;exitX=1;exitY=0.5;exitDx=0;exitDy=0;" edge="1" parent="WIyWlLk6GJQsqaUBKTNV-1" source="p7LAtFyXHKQ8iP5lbTSZ-60" target="p7LAtFyXHKQ8iP5lbTSZ-64">
          <mxGeometry width="50" height="50" relative="1" as="geometry">
            <mxPoint x="20" y="1034" as="sourcePoint" />
            <mxPoint x="70" y="984" as="targetPoint" />
          </mxGeometry>
        </mxCell>
        <mxCell id="p7LAtFyXHKQ8iP5lbTSZ-84" value="" style="endArrow=classic;html=1;rounded=0;entryX=0;entryY=0.5;entryDx=0;entryDy=0;exitX=1;exitY=0.5;exitDx=0;exitDy=0;" edge="1" parent="WIyWlLk6GJQsqaUBKTNV-1" source="p7LAtFyXHKQ8iP5lbTSZ-60" target="p7LAtFyXHKQ8iP5lbTSZ-68">
          <mxGeometry width="50" height="50" relative="1" as="geometry">
            <mxPoint x="20" y="1034" as="sourcePoint" />
            <mxPoint x="70" y="984" as="targetPoint" />
          </mxGeometry>
        </mxCell>
        <mxCell id="p7LAtFyXHKQ8iP5lbTSZ-85" value="" style="endArrow=classic;html=1;rounded=0;entryX=0;entryY=0.5;entryDx=0;entryDy=0;exitX=1;exitY=0.5;exitDx=0;exitDy=0;" edge="1" parent="WIyWlLk6GJQsqaUBKTNV-1" source="p7LAtFyXHKQ8iP5lbTSZ-60" target="p7LAtFyXHKQ8iP5lbTSZ-69">
          <mxGeometry width="50" height="50" relative="1" as="geometry">
            <mxPoint x="70" y="1014" as="sourcePoint" />
            <mxPoint x="70" y="984" as="targetPoint" />
          </mxGeometry>
        </mxCell>
        <mxCell id="p7LAtFyXHKQ8iP5lbTSZ-86" value="" style="endArrow=classic;html=1;rounded=0;entryX=0;entryY=0.5;entryDx=0;entryDy=0;exitX=1;exitY=0.5;exitDx=0;exitDy=0;" edge="1" parent="WIyWlLk6GJQsqaUBKTNV-1" source="p7LAtFyXHKQ8iP5lbTSZ-60" target="p7LAtFyXHKQ8iP5lbTSZ-70">
          <mxGeometry width="50" height="50" relative="1" as="geometry">
            <mxPoint x="20" y="1034" as="sourcePoint" />
            <mxPoint x="70" y="984" as="targetPoint" />
          </mxGeometry>
        </mxCell>
        <mxCell id="p7LAtFyXHKQ8iP5lbTSZ-87" value="stride&lt;div&gt;=&lt;/div&gt;&lt;div&gt;10&lt;/div&gt;" style="endArrow=classic;startArrow=classic;html=1;rounded=0;" edge="1" parent="WIyWlLk6GJQsqaUBKTNV-1">
          <mxGeometry width="50" height="50" relative="1" as="geometry">
            <mxPoint x="140" y="1094" as="sourcePoint" />
            <mxPoint x="140" y="904" as="targetPoint" />
          </mxGeometry>
        </mxCell>
        <mxCell id="p7LAtFyXHKQ8iP5lbTSZ-88" value="" style="endArrow=classic;startArrow=classic;html=1;rounded=0;entryX=0.25;entryY=1;entryDx=0;entryDy=0;" edge="1" parent="WIyWlLk6GJQsqaUBKTNV-1" target="p7LAtFyXHKQ8iP5lbTSZ-37">
          <mxGeometry width="50" height="50" relative="1" as="geometry">
            <mxPoint x="410" y="930" as="sourcePoint" />
            <mxPoint x="480" y="840" as="targetPoint" />
          </mxGeometry>
        </mxCell>
      </root>
    </mxGraphModel>
  </diagram>
</mxfile>
